[ConversionWorker] Logging FFmpeg output to: ffmpeg_logs\ffmpeg_conversion_引入03_wav_20250525_165408.log\n[ConversionWorker] Getting duration with command: ffprobe -v error -show_entries format=duration -of default=noprint_wrappers=1:nokey=1 Z:\Story\引入\引入03.wav\n[ConversionWorker] Duration for 引入03.wav: 16505214 ms\n[ConversionWorker] Starting FFmpeg for 引入03.wav: ffmpeg -i Z:\Story\引入\引入03.wav -b:a 256k -vn -y -loglevel error -stats -progress pipe:1 Z:\Story\引入\引入03.mp3\n[ConversionWorker] FFmpeg process started. PID: 20228\n[STDOUT RAW] bitrate= 154.6kbits/s\n[STDOUT RAW] total_size=96044\n[STDOUT RAW] out_time_us=4969958\n[STDOUT RAW] out_time_ms=4969958\n[STDOUT RAW] out_time=00:00:04.969958\n[STDOUT RAW] dup_frames=0\n[STDOUT RAW] drop_frames=0\n[STDOUT RAW] speed=9.64x\n[STDOUT RAW] progress=continue\n[STDERR RAW] size=      94KiB time=00:00:04.96 bitrate= 154.6kbits/s speed=9.64x\n[STDOUT RAW] bitrate= 157.3kbits/s\n[STDOUT RAW] total_size=192044\n[STDOUT RAW] out_time_us=9769958\n[STDOUT RAW] out_time_ms=9769958\n[STDOUT RAW] out_time=00:00:09.769958\n[STDOUT RAW] dup_frames=0\n[STDOUT RAW] drop_frames=0\n[STDOUT RAW] speed=9.59x\n[STDOUT RAW] progress=continue\n[STDERR RAW] size=     188KiB time=00:00:09.76 bitrate= 157.3kbits/s speed=9.59x\n[STDOUT RAW] bitrate= 127.1kbits/s\n[STDOUT RAW] total_size=786432\n[STDOUT RAW] out_time_us=49489958\n[STDOUT RAW] out_time_ms=49489958\n[STDOUT RAW] out_time=00:00:49.489958\n[STDOUT RAW] dup_frames=0\n[STDOUT RAW] drop_frames=0\n[STDOUT RAW] speed=  32x\n[STDOUT RAW] progress=continue\n[STDERR RAW] size=     768KiB time=00:00:49.48 bitrate= 127.1kbits/s speed=  32x\n[STDOUT RAW] bitrate= 149.5kbits/s\n[STDOUT RAW] total_size=3145728\n[STDOUT RAW] out_time_us=168289958\n[STDOUT RAW] out_time_ms=168289958\n[STDOUT RAW] out_time=00:02:48.289958\n[STDOUT RAW] dup_frames=0\n[STDOUT RAW] drop_frames=0\n[STDOUT RAW] speed=  82x\n[STDOUT RAW] progress=continue\n[STDERR RAW] size=    3072KiB time=00:02:48.28 bitrate= 149.5kbits/s speed=  82x\n[STDOUT RAW] bitrate= 158.8kbits/s\n[STDOUT RAW] total_size=5505024\n[STDOUT RAW] out_time_us=277273958\n[STDOUT RAW] out_time_ms=277273958\n[STDOUT RAW] out_time=00:04:37.273958\n[STDOUT RAW] dup_frames=0\n[STDOUT RAW] drop_frames=0\n[STDOUT RAW] speed= 108x\n[STDOUT RAW] progress=continue\n[STDERR RAW] size=    5376KiB time=00:04:37.27 bitrate= 158.8kbits/s speed= 108x\n[STDOUT RAW] bitrate= 158.9kbits/s\n[STDOUT RAW] total_size=7602176\n[STDOUT RAW] out_time_us=382849958\n[STDOUT RAW] out_time_ms=382849958\n[STDOUT RAW] out_time=00:06:22.849958\n[STDOUT RAW] dup_frames=0\n[STDOUT RAW] drop_frames=0\n[STDOUT RAW] speed= 124x\n[STDOUT RAW] progress=continue\n[STDERR RAW] size=    7424KiB time=00:06:22.84 bitrate= 158.9kbits/s speed= 124x\n[STDOUT RAW] bitrate= 155.6kbits/s\n[STDOUT RAW] total_size=9437184\n[STDOUT RAW] out_time_us=485089958\n[STDOUT RAW] out_time_ms=485089958\n[STDOUT RAW] out_time=00:08:05.089958\n[STDOUT RAW] dup_frames=0\n[STDOUT RAW] drop_frames=0\n[STDOUT RAW] speed= 135x\n[STDOUT RAW] progress=continue\n[STDERR RAW] size=    9216KiB time=00:08:05.08 bitrate= 155.6kbits/s speed= 135x\n[STDOUT RAW] bitrate= 159.1kbits/s\n[STDOUT RAW] total_size=11534336\n[STDOUT RAW] out_time_us=579985958\n[STDOUT RAW] out_time_ms=579985958\n[STDOUT RAW] out_time=00:09:39.985958\n[STDOUT RAW] dup_frames=0\n[STDOUT RAW] drop_frames=0\n[STDOUT RAW] speed= 141x\n[STDOUT RAW] progress=continue\n[STDERR RAW] size=   11264KiB time=00:09:39.98 bitrate= 159.1kbits/s speed= 141x\n[STDOUT RAW] bitrate= 158.2kbits/s\n[STDOUT RAW] total_size=13369344\n[STDOUT RAW] out_time_us=675937958\n[STDOUT RAW] out_time_ms=675937958\n[STDOUT RAW] out_time=00:11:15.937958\n[STDOUT RAW] dup_frames=0\n[STDOUT RAW] drop_frames=0\n[STDOUT RAW] speed= 146x\n[STDOUT RAW] progress=continue\n[STDERR RAW] size=   13056KiB time=00:11:15.93 bitrate= 158.2kbits/s speed= 146x\n[STDOUT RAW] bitrate= 159.4kbits/s\n[STDOUT RAW] total_size=15466496\n[STDOUT RAW] out_time_us=776089958\n[STDOUT RAW] out_time_ms=776089958\n[STDOUT RAW] out_time=00:12:56.089958\n[STDOUT RAW] dup_frames=0\n[STDOUT RAW] drop_frames=0\n[STDOUT RAW] speed= 151x\n[STDOUT RAW] progress=continue\n[STDERR RAW] size=   15104KiB time=00:12:56.08 bitrate= 159.4kbits/s speed= 151x\n[STDOUT RAW] bitrate= 158.5kbits/s\n[STDOUT RAW] total_size=17301504\n[STDOUT RAW] out_time_us=873001958\n[STDOUT RAW] out_time_ms=873001958\n[STDOUT RAW] out_time=00:14:33.001958\n[STDOUT RAW] dup_frames=0\n[STDOUT RAW] drop_frames=0\n[STDOUT RAW] speed= 154x\n[STDOUT RAW] progress=continue\n[STDERR RAW] size=   16896KiB time=00:14:33.00 bitrate= 158.5kbits/s speed= 154x\n[STDOUT RAW] bitrate= 159.5kbits/s\n[STDOUT RAW] total_size=19398656\n[STDOUT RAW] out_time_us=972889958\n[STDOUT RAW] out_time_ms=972889958\n[STDOUT RAW] out_time=00:16:12.889958\n[STDOUT RAW] dup_frames=0\n[STDOUT RAW] drop_frames=0\n[STDOUT RAW] speed= 158x\n[STDOUT RAW] progress=continue\n[STDERR RAW] size=   18944KiB time=00:16:12.88 bitrate= 159.5kbits/s speed= 158x\n[STDOUT RAW] bitrate= 158.0kbits/s\n[STDOUT RAW] total_size=21233664\n[STDOUT RAW] out_time_us=1074913958\n[STDOUT RAW] out_time_ms=1074913958\n[STDOUT RAW] out_time=00:17:54.913958\n[STDOUT RAW] dup_frames=0\n[STDOUT RAW] drop_frames=0\n[STDOUT RAW] speed= 161x\n[STDOUT RAW] progress=continue\n[STDERR RAW] size=   20736KiB time=00:17:54.91 bitrate= 158.0kbits/s speed= 161x\n[STDOUT RAW] bitrate= 158.2kbits/s\n[STDOUT RAW] total_size=23330816\n[STDOUT RAW] out_time_us=1179769958\n[STDOUT RAW] out_time_ms=1179769958\n[STDOUT RAW] out_time=00:19:39.769958\n[STDOUT RAW] dup_frames=0\n[STDOUT RAW] drop_frames=0\n[STDOUT RAW] speed= 164x\n[STDOUT RAW] progress=continue\n[STDERR RAW] size=   22784KiB time=00:19:39.76 bitrate= 158.2kbits/s speed= 164x\n[STDOUT RAW] bitrate= 158.4kbits/s\n[STDOUT RAW] total_size=25427968\n[STDOUT RAW] out_time_us=1284625958\n[STDOUT RAW] out_time_ms=1284625958\n[STDOUT RAW] out_time=00:21:24.625958\n[STDOUT RAW] dup_frames=0\n[STDOUT RAW] drop_frames=0\n[STDOUT RAW] speed= 166x\n[STDOUT RAW] progress=continue\n[STDOUT RAW] bitrate= 159.6kbits/s\n[STDERR RAW] size=   24832KiB time=00:21:24.62 bitrate= 158.4kbits/s speed= 166x\n[STDOUT RAW] total_size=27787264\n[STDOUT RAW] out_time_us=1392409958\n[STDOUT RAW] out_time_ms=1392409958\n[STDOUT RAW] out_time=00:23:12.409958\n[STDOUT RAW] dup_frames=0\n[STDOUT RAW] drop_frames=0\n[STDOUT RAW] speed= 169x\n[STDOUT RAW] progress=continue\n[STDERR RAW] size=   27136KiB time=00:23:12.40 bitrate= 159.6kbits/s speed= 169x\n[STDOUT RAW] bitrate= 159.5kbits/s\n[STDOUT RAW] total_size=29884416\n[STDOUT RAW] out_time_us=1498609958\n[STDOUT RAW] out_time_ms=1498609958\n[STDOUT RAW] out_time=00:24:58.609958\n[STDOUT RAW] dup_frames=0\n[STDOUT RAW] drop_frames=0\n[STDOUT RAW] speed= 171x\n[STDOUT RAW] progress=continue\n[STDERR RAW] size=   29184KiB time=00:24:58.60 bitrate= 159.5kbits/s speed= 171x\n[STDOUT RAW] bitrate= 159.2kbits/s\n[STDOUT RAW] total_size=31981568\n[STDOUT RAW] out_time_us=1607425958\n[STDOUT RAW] out_time_ms=1607425958\n[STDOUT RAW] out_time=00:26:47.425958\n[STDOUT RAW] dup_frames=0\n[STDOUT RAW] drop_frames=0\n[STDOUT RAW] speed= 173x\n[STDOUT RAW] progress=continue\n[STDERR RAW] size=   31232KiB time=00:26:47.42 bitrate= 159.2kbits/s speed= 173x\n[STDOUT RAW] bitrate= 160.0kbits/s\n[STDOUT RAW] total_size=34078720\n[STDOUT RAW] out_time_us=1704121958\n[STDOUT RAW] out_time_ms=1704121958\n[STDOUT RAW] out_time=00:28:24.121958\n[STDOUT RAW] dup_frames=0\n[STDOUT RAW] drop_frames=0\n[STDOUT RAW] speed= 174x\n[STDOUT RAW] progress=continue\n[STDERR RAW] size=   33280KiB time=00:28:24.12 bitrate= 160.0kbits/s speed= 174x\n[STDOUT RAW] bitrate= 158.8kbits/s\n[STDOUT RAW] total_size=35913728\n[STDOUT RAW] out_time_us=1808929958\n[STDOUT RAW] out_time_ms=1808929958\n[STDOUT RAW] out_time=00:30:08.929958\n[STDOUT RAW] dup_frames=0\n[STDOUT RAW] drop_frames=0\n[STDOUT RAW] speed= 176x\n[STDOUT RAW] progress=continue\n[STDERR RAW] size=   35072KiB time=00:30:08.92 bitrate= 158.8kbits/s speed= 176x\n[STDOUT RAW] bitrate= 159.4kbits/s\n[STDOUT RAW] total_size=38010880\n[STDOUT RAW] out_time_us=1907161958\n[STDOUT RAW] out_time_ms=1907161958\n[STDOUT RAW] out_time=00:31:47.161958\n[STDOUT RAW] dup_frames=0\n[STDOUT RAW] drop_frames=0\n[STDOUT RAW] speed= 176x\n[STDOUT RAW] progress=continue\n[STDOUT RAW] bitrate= 159.9kbits/s\n[STDOUT RAW] total_size=40108032\n[STDERR RAW] size=   37120KiB time=00:31:47.16 bitrate= 159.4kbits/s speed= 176x\n[STDOUT RAW] out_time_us=2007193958\n[STDOUT RAW] out_time_ms=2007193958\n[STDOUT RAW] out_time=00:33:27.193958\n[STDOUT RAW] dup_frames=0\n[STDOUT RAW] drop_frames=0\n[STDOUT RAW] speed= 177x\n[STDOUT RAW] progress=continue\n[STDERR RAW] size=   39168KiB time=00:33:27.19 bitrate= 159.9kbits/s speed= 177x\n[STDOUT RAW] bitrate= 160.0kbits/s\n[STDOUT RAW] total_size=42205184\n[STDOUT RAW] out_time_us=2110825958\n[STDOUT RAW] out_time_ms=2110825958\n[STDOUT RAW] out_time=00:35:10.825958\n[STDOUT RAW] dup_frames=0\n[STDOUT RAW] drop_frames=0\n[STDOUT RAW] speed= 178x\n[STDOUT RAW] progress=continue\n[STDERR RAW] size=   41216KiB time=00:35:10.82 bitrate= 160.0kbits/s speed= 178x\n[STDOUT RAW] bitrate= 159.9kbits/s\n[STDOUT RAW] total_size=44302336\n[STDOUT RAW] out_time_us=2215825958\n[STDOUT RAW] out_time_ms=2215825958\n[STDOUT RAW] out_time=00:36:55.825958\n[STDOUT RAW] dup_frames=0\n[STDOUT RAW] drop_frames=0\n[STDOUT RAW] speed= 179x\n[STDOUT RAW] progress=continue\n[STDERR RAW] size=   43264KiB time=00:36:55.82 bitrate= 159.9kbits/s speed= 179x\n[STDOUT RAW] bitrate= 159.1kbits/s\n[STDOUT RAW] total_size=46137344\n[STDOUT RAW] out_time_us=2320105958\n[STDOUT RAW] out_time_ms=2320105958\n[STDOUT RAW] out_time=00:38:40.105958\n[STDOUT RAW] dup_frames=0\n[STDOUT RAW] drop_frames=0\n[STDOUT RAW] speed= 180x\n[STDOUT RAW] progress=continue\n[STDERR RAW] size=   45056KiB time=00:38:40.10 bitrate= 159.1kbits/s speed= 180x\n[STDOUT RAW] bitrate= 159.1kbits/s\n[STDOUT RAW] total_size=48234496\n[STDOUT RAW] out_time_us=2424961958\n[STDOUT RAW] out_time_ms=2424961958\n[STDOUT RAW] out_time=00:40:24.961958\n[STDOUT RAW] dup_frames=0\n[STDOUT RAW] drop_frames=0\n[STDOUT RAW] speed= 181x\n[STDOUT RAW] progress=continue\n[STDOUT RAW] bitrate= 159.4kbits/s\n[STDERR RAW] size=   47104KiB time=00:40:24.96 bitrate= 159.1kbits/s speed= 181x\n[STDOUT RAW] total_size=50331648\n[STDOUT RAW] out_time_us=2526505958\n[STDOUT RAW] out_time_ms=2526505958\n[STDOUT RAW] out_time=00:42:06.505958\n[STDOUT RAW] dup_frames=0\n[STDOUT RAW] drop_frames=0\n[STDOUT RAW] speed= 182x\n[STDOUT RAW] progress=continue\n[STDERR RAW] size=   49152KiB time=00:42:06.50 bitrate= 159.4kbits/s speed= 182x\n[STDOUT RAW] bitrate= 159.9kbits/s\n[STDOUT RAW] total_size=52428800\n[STDOUT RAW] out_time_us=2622673958\n[STDOUT RAW] out_time_ms=2622673958\n[STDOUT RAW] out_time=00:43:42.673958\n[STDOUT RAW] dup_frames=0\n[STDOUT RAW] drop_frames=0\n[STDOUT RAW] speed= 182x\n[STDOUT RAW] progress=continue\n[STDERR RAW] size=   51200KiB time=00:43:42.67 bitrate= 159.9kbits/s speed= 182x\n[STDOUT RAW] bitrate= 159.8kbits/s\n[STDOUT RAW] total_size=54263808\n[STDOUT RAW] out_time_us=2716849958\n[STDOUT RAW] out_time_ms=2716849958\n[STDOUT RAW] out_time=00:45:16.849958\n[STDOUT RAW] dup_frames=0\n[STDOUT RAW] drop_frames=0\n[STDOUT RAW] speed= 182x\n[STDOUT RAW] progress=continue\n[STDERR RAW] size=   52992KiB time=00:45:16.84 bitrate= 159.8kbits/s speed= 182x\n[STDOUT RAW] bitrate= 159.3kbits/s\n[STDOUT RAW] total_size=56098816\n[STDOUT RAW] out_time_us=2816569958\n[STDOUT RAW] out_time_ms=2816569958\n[STDOUT RAW] out_time=00:46:56.569958\n[STDOUT RAW] dup_frames=0\n[STDOUT RAW] drop_frames=0\n[STDOUT RAW] speed= 182x\n[STDOUT RAW] progress=continue\n[STDERR RAW] size=   54784KiB time=00:46:56.56 bitrate= 159.3kbits/s speed= 182x\n[STDOUT RAW] bitrate= 159.8kbits/s\n[STDOUT RAW] total_size=58195968\n[STDOUT RAW] out_time_us=2913673958\n[STDOUT RAW] out_time_ms=2913673958\n[STDOUT RAW] out_time=00:48:33.673958\n[STDOUT RAW] dup_frames=0\n[STDOUT RAW] drop_frames=0\n[STDOUT RAW] speed= 182x\n[STDOUT RAW] progress=continue\n[STDERR RAW] size=   56832KiB time=00:48:33.67 bitrate= 159.8kbits/s speed= 182x\n[STDOUT RAW] bitrate= 159.3kbits/s\n[STDOUT RAW] total_size=59768832\n[STDOUT RAW] out_time_us=3001681958\n[STDOUT RAW] out_time_ms=3001681958\n[STDOUT RAW] out_time=00:50:01.681958\n[STDOUT RAW] dup_frames=0\n[STDOUT RAW] drop_frames=0\n[STDOUT RAW] speed= 182x\n[STDOUT RAW] progress=continue\n[STDERR RAW] size=   58368KiB time=00:50:01.68 bitrate= 159.3kbits/s speed= 182x\n[STDOUT RAW] bitrate= 159.4kbits/s\n[STDOUT RAW] total_size=62128128\n[STDOUT RAW] out_time_us=3117289958\n[STDOUT RAW] out_time_ms=3117289958\n[STDOUT RAW] out_time=00:51:57.289958\n[STDOUT RAW] dup_frames=0\n[STDOUT RAW] drop_frames=0\n[STDOUT RAW] speed= 183x\n[STDOUT RAW] progress=continue\n[STDERR RAW] size=   60672KiB time=00:51:57.28 bitrate= 159.4kbits/s speed= 183x\n[STDOUT RAW] bitrate= 159.3kbits/s\n[STDOUT RAW] total_size=63963136\n[STDOUT RAW] out_time_us=3211393958\n[STDOUT RAW] out_time_ms=3211393958\n[STDOUT RAW] out_time=00:53:31.393958\n[STDOUT RAW] dup_frames=0\n[STDOUT RAW] drop_frames=0\n[STDOUT RAW] speed= 183x\n[STDOUT RAW] progress=continue\n[STDERR RAW] size=   62464KiB time=00:53:31.39 bitrate= 159.3kbits/s speed= 183x\n[STDOUT RAW] bitrate= 159.7kbits/s\n[STDOUT RAW] total_size=65798144\n[STDOUT RAW] out_time_us=3296809958\n[STDOUT RAW] out_time_ms=3296809958\n[STDOUT RAW] out_time=00:54:56.809958\n[STDOUT RAW] dup_frames=0\n[STDOUT RAW] drop_frames=0\n[STDOUT RAW] speed= 183x\n[STDOUT RAW] progress=continue\n[STDERR RAW] size=   64256KiB time=00:54:56.80 bitrate= 159.7kbits/s speed= 183x\n[STDOUT RAW] bitrate= 159.5kbits/s\n[STDOUT RAW] total_size=67633152\n[STDOUT RAW] out_time_us=3392545958\n[STDOUT RAW] out_time_ms=3392545958\n[STDOUT RAW] out_time=00:56:32.545958\n[STDOUT RAW] dup_frames=0\n[STDOUT RAW] drop_frames=0\n[STDOUT RAW] speed= 183x\n[STDOUT RAW] progress=continue\n[STDERR RAW] size=   66048KiB time=00:56:32.54 bitrate= 159.5kbits/s speed= 183x\n[STDOUT RAW] bitrate= 159.7kbits/s\n[STDOUT RAW] total_size=69468160\n[STDOUT RAW] out_time_us=3478849958\n[STDOUT RAW] out_time_ms=3478849958\n[STDOUT RAW] out_time=00:57:58.849958\n[STDOUT RAW] dup_frames=0\n[STDOUT RAW] drop_frames=0\n[STDOUT RAW] speed= 182x\n[STDOUT RAW] progress=continue\n[STDERR RAW] size=   67840KiB time=00:57:58.84 bitrate= 159.7kbits/s speed= 182x\n[STDOUT RAW] bitrate= 159.6kbits/s\n[STDOUT RAW] total_size=71303168\n[STDOUT RAW] out_time_us=3573817958\n[STDOUT RAW] out_time_ms=3573817958\n[STDOUT RAW] out_time=00:59:33.817958\n[STDOUT RAW] dup_frames=0\n[STDOUT RAW] drop_frames=0\n[STDOUT RAW] speed= 182x\n[STDOUT RAW] progress=continue\n[STDERR RAW] size=   69632KiB time=00:59:33.81 bitrate= 159.6kbits/s speed= 182x\n[STDOUT RAW] bitrate= 159.6kbits/s\n[STDOUT RAW] total_size=73138176\n[STDOUT RAW] out_time_us=3665497958\n[STDOUT RAW] out_time_ms=3665497958\n[STDOUT RAW] out_time=01:01:05.497958\n[STDOUT RAW] dup_frames=0\n[STDOUT RAW] drop_frames=0\n[STDOUT RAW] speed= 182x\n[STDOUT RAW] progress=continue\n[STDERR RAW] size=   71424KiB time=01:01:05.49 bitrate= 159.6kbits/s speed= 182x\n[STDOUT RAW] bitrate= 159.7kbits/s\n[STDOUT RAW] total_size=74973184\n[STDOUT RAW] out_time_us=3755017958\n[STDOUT RAW] out_time_ms=3755017958\n[STDOUT RAW] out_time=01:02:35.017958\n[STDOUT RAW] dup_frames=0\n[STDOUT RAW] drop_frames=0\n[STDOUT RAW] speed= 182x\n[STDOUT RAW] progress=continue\n[STDERR RAW] size=   73216KiB time=01:02:35.01 bitrate= 159.7kbits/s speed= 182x\n[STDOUT RAW] bitrate= 159.6kbits/s\n[STDOUT RAW] total_size=76808192\n[STDOUT RAW] out_time_us=3850753958\n[STDOUT RAW] out_time_ms=3850753958\n[STDOUT RAW] out_time=01:04:10.753958\n[STDOUT RAW] dup_frames=0\n[STDOUT RAW] drop_frames=0\n[STDOUT RAW] speed= 182x\n[STDOUT RAW] progress=continue\n[STDERR RAW] size=   75008KiB time=01:04:10.75 bitrate= 159.6kbits/s speed= 182x\n[STDOUT RAW] bitrate= 159.9kbits/s\n[STDOUT RAW] total_size=78905344\n[STDOUT RAW] out_time_us=3947257958\n[STDOUT RAW] out_time_ms=3947257958\n[STDOUT RAW] out_time=01:05:47.257958\n[STDOUT RAW] dup_frames=0\n[STDOUT RAW] drop_frames=0\n[STDOUT RAW] speed= 182x\n[STDOUT RAW] progress=continue\n[STDERR RAW] size=   77056KiB time=01:05:47.25 bitrate= 159.9kbits/s speed= 182x\n[STDOUT RAW] bitrate= 159.8kbits/s\n[STDOUT RAW] total_size=80478208\n[STDOUT RAW] out_time_us=4029025958\n[STDOUT RAW] out_time_ms=4029025958\n[STDOUT RAW] out_time=01:07:09.025958\n[STDOUT RAW] dup_frames=0\n[STDOUT RAW] drop_frames=0\n[STDOUT RAW] speed= 182x\n[STDOUT RAW] progress=continue\n[STDERR RAW] size=   78592KiB time=01:07:09.02 bitrate= 159.8kbits/s speed= 182x\n[STDOUT RAW] bitrate= 159.9kbits/s\n[STDOUT RAW] total_size=82313216\n[STDOUT RAW] out_time_us=4117945958\n[STDOUT RAW] out_time_ms=4117945958\n[STDOUT RAW] out_time=01:08:37.945958\n[STDOUT RAW] dup_frames=0\n[STDOUT RAW] drop_frames=0\n[STDOUT RAW] speed= 182x\n[STDOUT RAW] progress=continue\n[STDERR RAW] size=   80384KiB time=01:08:37.94 bitrate= 159.9kbits/s speed= 182x\n[STDOUT RAW] bitrate= 159.7kbits/s\n[STDOUT RAW] total_size=84148224\n[STDOUT RAW] out_time_us=4215385958\n[STDOUT RAW] out_time_ms=4215385958\n[STDOUT RAW] out_time=01:10:15.385958\n[STDOUT RAW] dup_frames=0\n[STDOUT RAW] drop_frames=0\n[STDOUT RAW] speed= 182x\n[STDOUT RAW] progress=continue\n[STDERR RAW] size=   82176KiB time=01:10:15.38 bitrate= 159.7kbits/s speed= 182x\n[STDOUT RAW] bitrate= 159.7kbits/s\n[STDOUT RAW] total_size=85983232\n[STDOUT RAW] out_time_us=4306681958\n[STDOUT RAW] out_time_ms=4306681958\n[STDOUT RAW] out_time=01:11:46.681958\n[STDOUT RAW] dup_frames=0\n[STDOUT RAW] drop_frames=0\n[STDOUT RAW] speed= 182x\n[STDOUT RAW] progress=continue\n[STDERR RAW] size=   83968KiB time=01:11:46.68 bitrate= 159.7kbits/s speed= 182x\n[STDOUT RAW] bitrate= 159.5kbits/s\n[STDOUT RAW] total_size=87818240\n[STDOUT RAW] out_time_us=4404145958\n[STDOUT RAW] out_time_ms=4404145958\n[STDOUT RAW] out_time=01:13:24.145958\n[STDOUT RAW] dup_frames=0\n[STDOUT RAW] drop_frames=0\n[STDOUT RAW] speed= 182x\n[STDOUT RAW] progress=continue\n[STDERR RAW] size=   85760KiB time=01:13:24.14 bitrate= 159.5kbits/s speed= 182x\n[STDOUT RAW] bitrate= 159.7kbits/s\n[STDOUT RAW] total_size=89915392\n[STDOUT RAW] out_time_us=4503865958\n[STDOUT RAW] out_time_ms=4503865958\n[STDOUT RAW] out_time=01:15:03.865958\n[STDOUT RAW] dup_frames=0\n[STDOUT RAW] drop_frames=0\n[STDOUT RAW] speed= 182x\n[STDOUT RAW] progress=continue\n[STDERR RAW] size=   87808KiB time=01:15:03.86 bitrate= 159.7kbits/s speed= 182x\n[STDOUT RAW] bitrate= 159.8kbits/s\n[STDOUT RAW] total_size=92012544\n[STDOUT RAW] out_time_us=4607017958\n[STDOUT RAW] out_time_ms=4607017958\n[STDOUT RAW] out_time=01:16:47.017958\n[STDOUT RAW] dup_frames=0\n[STDOUT RAW] drop_frames=0\n[STDOUT RAW] speed= 182x\n[STDOUT RAW] progress=continue\n[STDERR RAW] size=   89856KiB time=01:16:47.01 bitrate= 159.8kbits/s speed= 182x\n[STDOUT RAW] bitrate= 159.9kbits/s\n[STDOUT RAW] total_size=94109696\n[STDOUT RAW] out_time_us=4707505958\n[STDOUT RAW] out_time_ms=4707505958\n[STDOUT RAW] out_time=01:18:27.505958\n[STDOUT RAW] dup_frames=0\n[STDOUT RAW] drop_frames=0\n[STDOUT RAW] speed= 183x\n[STDOUT RAW] progress=continue\n[STDERR RAW] size=   91904KiB time=01:18:27.50 bitrate= 159.9kbits/s speed= 183x\n[STDOUT RAW] bitrate= 159.6kbits/s\n[STDOUT RAW] total_size=95944704\n[STDOUT RAW] out_time_us=4807777958\n[STDOUT RAW] out_time_ms=4807777958\n[STDOUT RAW] out_time=01:20:07.777958\n[STDOUT RAW] dup_frames=0\n[STDOUT RAW] drop_frames=0\n[STDOUT RAW] speed= 183x\n[STDOUT RAW] progress=continue\n[STDERR RAW] size=   93696KiB time=01:20:07.77 bitrate= 159.6kbits/s speed= 183x\n[STDOUT RAW] bitrate= 159.7kbits/s\n[STDOUT RAW] total_size=98041856\n[STDOUT RAW] out_time_us=4911769958\n[STDOUT RAW] out_time_ms=4911769958\n[STDOUT RAW] out_time=01:21:51.769958\n[STDOUT RAW] dup_frames=0\n[STDOUT RAW] drop_frames=0\n[STDOUT RAW] speed= 183x\n[STDOUT RAW] progress=continue\n[STDERR RAW] size=   95744KiB time=01:21:51.76 bitrate= 159.7kbits/s speed= 183x\n[STDOUT RAW] bitrate= 159.7kbits/s\n[STDOUT RAW] total_size=99876864\n[STDOUT RAW] out_time_us=5001673958\n[STDOUT RAW] out_time_ms=5001673958\n[STDOUT RAW] out_time=01:23:21.673958\n[STDOUT RAW] dup_frames=0\n[STDOUT RAW] drop_frames=0\n[STDOUT RAW] speed= 183x\n[STDOUT RAW] progress=continue\n[STDERR RAW] size=   97536KiB time=01:23:21.67 bitrate= 159.7kbits/s speed= 183x\n[STDOUT RAW] bitrate= 159.8kbits/s\n[STDOUT RAW] total_size=101974016\n[STDOUT RAW] out_time_us=5103649958\n[STDOUT RAW] out_time_ms=5103649958\n[STDOUT RAW] out_time=01:25:03.649958\n[STDOUT RAW] dup_frames=0\n[STDOUT RAW] drop_frames=0\n[STDOUT RAW] speed= 183x\n[STDOUT RAW] progress=continue\n[STDERR RAW] size=   99584KiB time=01:25:03.64 bitrate= 159.8kbits/s speed= 183x\n[STDOUT RAW] bitrate= 160.0kbits/s\n[STDOUT RAW] total_size=103809024\n[STDOUT RAW] out_time_us=5190985958\n[STDOUT RAW] out_time_ms=5190985958\n[STDOUT RAW] out_time=01:26:30.985958\n[STDOUT RAW] dup_frames=0\n[STDOUT RAW] drop_frames=0\n[STDOUT RAW] speed= 183x\n[STDOUT RAW] progress=continue\n[STDERR RAW] size=  101376KiB time=01:26:30.98 bitrate= 160.0kbits/s speed= 183x\n[STDOUT RAW] bitrate= 160.0kbits/s\n[STDOUT RAW] total_size=105906176\n[STDOUT RAW] out_time_us=5296873958\n[STDOUT RAW] out_time_ms=5296873958\n[STDOUT RAW] out_time=01:28:16.873958\n[STDOUT RAW] dup_frames=0\n[STDOUT RAW] drop_frames=0\n[STDOUT RAW] speed= 184x\n[STDOUT RAW] progress=continue\n[STDERR RAW] size=  103424KiB time=01:28:16.87 bitrate= 160.0kbits/s speed= 184x\n[STDOUT RAW] bitrate= 160.0kbits/s\n[STDOUT RAW] total_size=107741184\n[STDOUT RAW] out_time_us=5388553958\n[STDOUT RAW] out_time_ms=5388553958\n[STDOUT RAW] out_time=01:29:48.553958\n[STDOUT RAW] dup_frames=0\n[STDOUT RAW] drop_frames=0\n[STDOUT RAW] speed= 183x\n[STDOUT RAW] progress=continue\n[STDERR RAW] size=  105216KiB time=01:29:48.55 bitrate= 160.0kbits/s speed= 183x\n[STDOUT RAW] bitrate= 159.7kbits/s\n[STDOUT RAW] total_size=109576192\n[STDOUT RAW] out_time_us=5488201958\n[STDOUT RAW] out_time_ms=5488201958\n[STDOUT RAW] out_time=01:31:28.201958\n[STDOUT RAW] dup_frames=0\n[STDOUT RAW] drop_frames=0\n[STDOUT RAW] speed= 184x\n[STDOUT RAW] progress=continue\n[STDERR RAW] size=  107008KiB time=01:31:28.20 bitrate= 159.7kbits/s speed= 184x\n[STDOUT RAW] bitrate= 159.8kbits/s\n[STDOUT RAW] total_size=111673344\n[STDOUT RAW] out_time_us=5590921958\n[STDOUT RAW] out_time_ms=5590921958\n[STDOUT RAW] out_time=01:33:10.921958\n[STDOUT RAW] dup_frames=0\n[STDOUT RAW] drop_frames=0\n[STDOUT RAW] speed= 184x\n[STDOUT RAW] progress=continue\n[STDERR RAW] size=  109056KiB time=01:33:10.92 bitrate= 159.8kbits/s speed= 184x\n[STDOUT RAW] bitrate= 160.0kbits/s\n[STDOUT RAW] total_size=113770496\n[STDOUT RAW] out_time_us=5690089958\n[STDOUT RAW] out_time_ms=5690089958\n[STDOUT RAW] out_time=01:34:50.089958\n[STDOUT RAW] dup_frames=0\n[STDOUT RAW] drop_frames=0\n[STDOUT RAW] speed= 184x\n[STDOUT RAW] progress=continue\n[STDERR RAW] size=  111104KiB time=01:34:50.08 bitrate= 160.0kbits/s speed= 184x\n[STDOUT RAW] bitrate= 159.6kbits/s\n[STDOUT RAW] total_size=115605504\n[STDOUT RAW] out_time_us=5793505958\n[STDOUT RAW] out_time_ms=5793505958\n[STDOUT RAW] out_time=01:36:33.505958\n[STDOUT RAW] dup_frames=0\n[STDOUT RAW] drop_frames=0\n[STDOUT RAW] speed= 184x\n[STDOUT RAW] progress=continue\n[STDERR RAW] size=  112896KiB time=01:36:33.50 bitrate= 159.6kbits/s speed= 184x\n[STDOUT RAW] bitrate= 159.8kbits/s\n[STDOUT RAW] total_size=117702656\n[STDOUT RAW] out_time_us=5892649958\n[STDOUT RAW] out_time_ms=5892649958\n[STDOUT RAW] out_time=01:38:12.649958\n[STDOUT RAW] dup_frames=0\n[STDOUT RAW] drop_frames=0\n[STDOUT RAW] speed= 184x\n[STDOUT RAW] progress=continue\n[STDERR RAW] size=  114944KiB time=01:38:12.64 bitrate= 159.8kbits/s speed= 184x\n[STDOUT RAW] bitrate= 159.8kbits/s\n[STDOUT RAW] total_size=119537664\n[STDOUT RAW] out_time_us=5985313958\n[STDOUT RAW] out_time_ms=5985313958\n[STDOUT RAW] out_time=01:39:45.313958\n[STDOUT RAW] dup_frames=0\n[STDOUT RAW] drop_frames=0\n[STDOUT RAW] speed= 184x\n[STDOUT RAW] progress=continue\n[STDERR RAW] size=  116736KiB time=01:39:45.31 bitrate= 159.8kbits/s speed= 184x\n[STDOUT RAW] bitrate= 159.9kbits/s\n[STDOUT RAW] total_size=121634816\n[STDOUT RAW] out_time_us=6084313958\n[STDOUT RAW] out_time_ms=6084313958\n[STDOUT RAW] out_time=01:41:24.313958\n[STDOUT RAW] dup_frames=0\n[STDOUT RAW] drop_frames=0\n[STDOUT RAW] speed= 184x\n[STDOUT RAW] progress=continue\n[STDERR RAW] size=  118784KiB time=01:41:24.31 bitrate= 159.9kbits/s speed= 184x\n[STDOUT RAW] bitrate= 159.9kbits/s\n[STDOUT RAW] total_size=123469824\n[STDOUT RAW] out_time_us=6179137958\n[STDOUT RAW] out_time_ms=6179137958\n[STDOUT RAW] out_time=01:42:59.137958\n[STDOUT RAW] dup_frames=0\n[STDOUT RAW] drop_frames=0\n[STDOUT RAW] speed= 184x\n[STDOUT RAW] progress=continue\n[STDERR RAW] size=  120576KiB time=01:42:59.13 bitrate= 159.9kbits/s speed= 184x\n[STDOUT RAW] bitrate= 159.8kbits/s\n[STDOUT RAW] total_size=125304832\n[STDOUT RAW] out_time_us=6272569958\n[STDOUT RAW] out_time_ms=6272569958\n[STDOUT RAW] out_time=01:44:32.569958\n[STDOUT RAW] dup_frames=0\n[STDOUT RAW] drop_frames=0\n[STDOUT RAW] speed= 184x\n[STDOUT RAW] progress=continue\n[STDERR RAW] size=  122368KiB time=01:44:32.56 bitrate= 159.8kbits/s speed= 184x\n[STDOUT RAW] bitrate= 159.9kbits/s\n[STDOUT RAW] total_size=127401984\n[STDOUT RAW] out_time_us=6372721958\n[STDOUT RAW] out_time_ms=6372721958\n[STDOUT RAW] out_time=01:46:12.721958\n[STDOUT RAW] dup_frames=0\n[STDOUT RAW] drop_frames=0\n[STDOUT RAW] speed= 185x\n[STDOUT RAW] progress=continue\n[STDERR RAW] size=  124416KiB time=01:46:12.72 bitrate= 159.9kbits/s speed= 185x\n[STDOUT RAW] bitrate= 160.0kbits/s\n[STDOUT RAW] total_size=129236992\n[STDOUT RAW] out_time_us=6463369958\n[STDOUT RAW] out_time_ms=6463369958\n[STDOUT RAW] out_time=01:47:43.369958\n[STDOUT RAW] dup_frames=0\n[STDOUT RAW] drop_frames=0\n[STDOUT RAW] speed= 184x\n[STDOUT RAW] progress=continue\n[STDERR RAW] size=  126208KiB time=01:47:43.36 bitrate= 160.0kbits/s speed= 184x\n[STDOUT RAW] bitrate= 159.8kbits/s\n[STDOUT RAW] total_size=131072000\n[STDOUT RAW] out_time_us=6563137958\n[STDOUT RAW] out_time_ms=6563137958\n[STDOUT RAW] out_time=01:49:23.137958\n[STDOUT RAW] dup_frames=0\n[STDOUT RAW] drop_frames=0\n[STDOUT RAW] speed= 185x\n[STDOUT RAW] progress=continue\n[STDERR RAW] size=  128000KiB time=01:49:23.13 bitrate= 159.8kbits/s speed= 185x\n[STDOUT RAW] bitrate= 160.0kbits/s\n[STDOUT RAW] total_size=133169152\n[STDOUT RAW] out_time_us=6659761958\n[STDOUT RAW] out_time_ms=6659761958\n[STDOUT RAW] out_time=01:50:59.761958\n[STDOUT RAW] dup_frames=0\n[STDOUT RAW] drop_frames=0\n[STDOUT RAW] speed= 185x\n[STDOUT RAW] progress=continue\n[STDERR RAW] size=  130048KiB time=01:50:59.76 bitrate= 160.0kbits/s speed= 185x\n[STDOUT RAW] bitrate= 159.7kbits/s\n[STDOUT RAW] total_size=135004160\n[STDOUT RAW] out_time_us=6763441958\n[STDOUT RAW] out_time_ms=6763441958\n[STDOUT RAW] out_time=01:52:43.441958\n[STDOUT RAW] dup_frames=0\n[STDOUT RAW] drop_frames=0\n[STDOUT RAW] speed= 185x\n[STDOUT RAW] progress=continue\n[STDERR RAW] size=  131840KiB time=01:52:43.44 bitrate= 159.7kbits/s speed= 185x\n[STDOUT RAW] bitrate= 159.9kbits/s\n[STDOUT RAW] total_size=137101312\n[STDOUT RAW] out_time_us=6858673958\n[STDOUT RAW] out_time_ms=6858673958\n[STDOUT RAW] out_time=01:54:18.673958\n[STDOUT RAW] dup_frames=0\n[STDOUT RAW] drop_frames=0\n[STDOUT RAW] speed= 185x\n[STDOUT RAW] progress=continue\n[STDERR RAW] size=  133888KiB time=01:54:18.67 bitrate= 159.9kbits/s speed= 185x\n[STDOUT RAW] bitrate= 159.7kbits/s\n[STDOUT RAW] total_size=138936320\n[STDOUT RAW] out_time_us=6960049958\n[STDOUT RAW] out_time_ms=6960049958\n[STDOUT RAW] out_time=01:56:00.049958\n[STDOUT RAW] dup_frames=0\n[STDOUT RAW] drop_frames=0\n[STDOUT RAW] speed= 185x\n[STDOUT RAW] progress=continue\n[STDERR RAW] size=  135680KiB time=01:56:00.04 bitrate= 159.7kbits/s speed= 185x\n[STDOUT RAW] bitrate= 159.9kbits/s\n[STDOUT RAW] total_size=141033472\n[STDOUT RAW] out_time_us=7056121958\n[STDOUT RAW] out_time_ms=7056121958\n[STDOUT RAW] out_time=01:57:36.121958\n[STDOUT RAW] dup_frames=0\n[STDOUT RAW] drop_frames=0\n[STDOUT RAW] speed= 185x\n[STDOUT RAW] progress=continue\n[STDERR RAW] size=  137728KiB time=01:57:36.12 bitrate= 159.9kbits/s speed= 185x\n[STDOUT RAW] bitrate= 159.8kbits/s\n[STDOUT RAW] total_size=142868480\n[STDOUT RAW] out_time_us=7153489958\n[STDOUT RAW] out_time_ms=7153489958\n[STDOUT RAW] out_time=01:59:13.489958\n[STDOUT RAW] dup_frames=0\n[STDOUT RAW] drop_frames=0\n[STDOUT RAW] speed= 185x\n[STDOUT RAW] progress=continue\n[STDERR RAW] size=  139520KiB time=01:59:13.48 bitrate= 159.8kbits/s speed= 185x\n[STDOUT RAW] bitrate= 159.9kbits/s\n[STDOUT RAW] total_size=144703488\n[STDOUT RAW] out_time_us=7241641958\n[STDOUT RAW] out_time_ms=7241641958\n[STDOUT RAW] out_time=02:00:41.641958\n[STDOUT RAW] dup_frames=0\n[STDOUT RAW] drop_frames=0\n[STDOUT RAW] speed= 185x\n[STDOUT RAW] progress=continue\n[STDERR RAW] size=  141312KiB time=02:00:41.64 bitrate= 159.9kbits/s speed= 185x\n[STDOUT RAW] bitrate= 159.8kbits/s\n[STDOUT RAW] total_size=146800640\n[STDOUT RAW] out_time_us=7348681958\n[STDOUT RAW] out_time_ms=7348681958\n[STDOUT RAW] out_time=02:02:28.681958\n[STDOUT RAW] dup_frames=0\n[STDOUT RAW] drop_frames=0\n[STDOUT RAW] speed= 185x\n[STDOUT RAW] progress=continue\n[STDERR RAW] size=  143360KiB time=02:02:28.68 bitrate= 159.8kbits/s speed= 185x\n[STDOUT RAW] bitrate= 159.7kbits/s\n[STDOUT RAW] total_size=148635648\n[STDOUT RAW] out_time_us=7445017958\n[STDOUT RAW] out_time_ms=7445017958\n[STDOUT RAW] out_time=02:04:05.017958\n[STDOUT RAW] dup_frames=0\n[STDOUT RAW] drop_frames=0\n[STDOUT RAW] speed= 185x\n[STDOUT RAW] progress=continue\n[STDERR RAW] size=  145152KiB time=02:04:05.01 bitrate= 159.7kbits/s speed= 185x\n[STDOUT RAW] bitrate= 160.0kbits/s\n[STDOUT RAW] total_size=150732800\n[STDOUT RAW] out_time_us=7537081958\n[STDOUT RAW] out_time_ms=7537081958\n[STDOUT RAW] out_time=02:05:37.081958\n[STDOUT RAW] dup_frames=0\n[STDOUT RAW] drop_frames=0\n[STDOUT RAW] speed= 185x\n[STDOUT RAW] progress=continue\n[STDERR RAW] size=  147200KiB time=02:05:37.08 bitrate= 160.0kbits/s speed= 185x\n[STDOUT RAW] bitrate= 159.8kbits/s\n[STDOUT RAW] total_size=152567808\n[STDOUT RAW] out_time_us=7636705958\n[STDOUT RAW] out_time_ms=7636705958\n[STDOUT RAW] out_time=02:07:16.705958\n[STDOUT RAW] dup_frames=0\n[STDOUT RAW] drop_frames=0\n[STDOUT RAW] speed= 185x\n[STDOUT RAW] progress=continue\n[STDERR RAW] size=  148992KiB time=02:07:16.70 bitrate= 159.8kbits/s speed= 185x\n[STDOUT RAW] bitrate= 159.9kbits/s\n[STDOUT RAW] total_size=154402816\n[STDOUT RAW] out_time_us=7724281958\n[STDOUT RAW] out_time_ms=7724281958\n[STDOUT RAW] out_time=02:08:44.281958\n[STDOUT RAW] dup_frames=0\n[STDOUT RAW] drop_frames=0\n[STDOUT RAW] speed= 185x\n[STDOUT RAW] progress=continue\n[STDERR RAW] size=  150784KiB time=02:08:44.28 bitrate= 159.9kbits/s speed= 185x\n[STDOUT RAW] bitrate= 159.8kbits/s\n[STDOUT RAW] total_size=156499968\n[STDOUT RAW] out_time_us=7833025958\n[STDOUT RAW] out_time_ms=7833025958\n[STDOUT RAW] out_time=02:10:33.025958\n[STDOUT RAW] dup_frames=0\n[STDOUT RAW] drop_frames=0\n[STDOUT RAW] speed= 185x\n[STDOUT RAW] progress=continue\n[STDERR RAW] size=  152832KiB time=02:10:33.02 bitrate= 159.8kbits/s speed= 185x\n[STDOUT RAW] bitrate= 159.7kbits/s\n[STDOUT RAW] total_size=158334976\n[STDOUT RAW] out_time_us=7929985958\n[STDOUT RAW] out_time_ms=7929985958\n[STDOUT RAW] out_time=02:12:09.985958\n[STDOUT RAW] dup_frames=0\n[STDOUT RAW] drop_frames=0\n[STDOUT RAW] speed= 185x\n[STDOUT RAW] progress=continue\n[STDERR RAW] size=  154624KiB time=02:12:09.98 bitrate= 159.7kbits/s speed= 185x\n[STDOUT RAW] bitrate= 159.8kbits/s\n[STDOUT RAW] total_size=160432128\n[STDOUT RAW] out_time_us=8032657958\n[STDOUT RAW] out_time_ms=8032657958\n[STDOUT RAW] out_time=02:13:52.657958\n[STDOUT RAW] dup_frames=0\n[STDOUT RAW] drop_frames=0\n[STDOUT RAW] speed= 185x\n[STDOUT RAW] progress=continue\n[STDERR RAW] size=  156672KiB time=02:13:52.65 bitrate= 159.8kbits/s speed= 185x\n[STDOUT RAW] bitrate= 159.9kbits/s\n[STDOUT RAW] total_size=162529280\n[STDOUT RAW] out_time_us=8132161958\n[STDOUT RAW] out_time_ms=8132161958\n[STDOUT RAW] out_time=02:15:32.161958\n[STDOUT RAW] dup_frames=0\n[STDOUT RAW] drop_frames=0\n[STDOUT RAW] speed= 186x\n[STDOUT RAW] progress=continue\n[STDERR RAW] size=  158720KiB time=02:15:32.16 bitrate= 159.9kbits/s speed= 186x\n[STDOUT RAW] bitrate= 159.7kbits/s\n[STDOUT RAW] total_size=164364288\n[STDOUT RAW] out_time_us=8231161958\n[STDOUT RAW] out_time_ms=8231161958\n[STDOUT RAW] out_time=02:17:11.161958\n[STDOUT RAW] dup_frames=0\n[STDOUT RAW] drop_frames=0\n[STDOUT RAW] speed= 186x\n[STDOUT RAW] progress=continue\n[STDERR RAW] size=  160512KiB time=02:17:11.16 bitrate= 159.7kbits/s speed= 186x\n[STDOUT RAW] bitrate= 159.8kbits/s\n[STDOUT RAW] total_size=166461440\n[STDOUT RAW] out_time_us=8334049958\n[STDOUT RAW] out_time_ms=8334049958\n[STDOUT RAW] out_time=02:18:54.049958\n[STDOUT RAW] dup_frames=0\n[STDOUT RAW] drop_frames=0\n[STDOUT RAW] speed= 186x\n[STDOUT RAW] progress=continue\n[STDERR RAW] size=  162560KiB time=02:18:54.04 bitrate= 159.8kbits/s speed= 186x\n[STDOUT RAW] bitrate= 160.0kbits/s\n[STDOUT RAW] total_size=168558592\n[STDOUT RAW] out_time_us=8428873958\n[STDOUT RAW] out_time_ms=8428873958\n[STDOUT RAW] out_time=02:20:28.873958\n[STDOUT RAW] dup_frames=0\n[STDOUT RAW] drop_frames=0\n[STDOUT RAW] speed= 186x\n[STDOUT RAW] progress=continue\n[STDERR RAW] size=  164608KiB time=02:20:28.87 bitrate= 160.0kbits/s speed= 186x\n[STDOUT RAW] bitrate= 159.8kbits/s\n[STDOUT RAW] total_size=170131456\n[STDOUT RAW] out_time_us=8516185958\n[STDOUT RAW] out_time_ms=8516185958\n[STDOUT RAW] out_time=02:21:56.185958\n[STDOUT RAW] dup_frames=0\n[STDOUT RAW] drop_frames=0\n[STDOUT RAW] speed= 186x\n[STDOUT RAW] progress=continue\n[STDERR RAW] size=  166144KiB time=02:21:56.18 bitrate= 159.8kbits/s speed= 186x\n[STDOUT RAW] bitrate= 159.8kbits/s\n[STDOUT RAW] total_size=171966464\n[STDOUT RAW] out_time_us=8606809958\n[STDOUT RAW] out_time_ms=8606809958\n[STDOUT RAW] out_time=02:23:26.809958\n[STDOUT RAW] dup_frames=0\n[STDOUT RAW] drop_frames=0\n[STDOUT RAW] speed= 186x\n[STDOUT RAW] progress=continue\n[STDERR RAW] size=  167936KiB time=02:23:26.80 bitrate= 159.8kbits/s speed= 186x\n[STDOUT RAW] bitrate= 159.8kbits/s\n[STDOUT RAW] total_size=173801472\n[STDOUT RAW] out_time_us=8703313958\n[STDOUT RAW] out_time_ms=8703313958\n[STDOUT RAW] out_time=02:25:03.313958\n[STDOUT RAW] dup_frames=0\n[STDOUT RAW] drop_frames=0\n[STDOUT RAW] speed= 186x\n[STDOUT RAW] progress=continue\n[STDERR RAW] size=  169728KiB time=02:25:03.31 bitrate= 159.8kbits/s speed= 186x\n[STDOUT RAW] bitrate= 160.0kbits/s\n[STDOUT RAW] total_size=175898624\n[STDOUT RAW] out_time_us=8795833958\n[STDOUT RAW] out_time_ms=8795833958\n[STDOUT RAW] out_time=02:26:35.833958\n[STDOUT RAW] dup_frames=0\n[STDOUT RAW] drop_frames=0\n[STDOUT RAW] speed= 185x\n[STDOUT RAW] progress=continue\n[STDERR RAW] size=  171776KiB time=02:26:35.83 bitrate= 160.0kbits/s speed= 185x\n[STDOUT RAW] bitrate= 159.8kbits/s\n[STDOUT RAW] total_size=177471488\n[STDOUT RAW] out_time_us=8886817958\n[STDOUT RAW] out_time_ms=8886817958\n[STDOUT RAW] out_time=02:28:06.817958\n[STDOUT RAW] dup_frames=0\n[STDOUT RAW] drop_frames=0\n[STDOUT RAW] speed= 185x\n[STDOUT RAW] progress=continue\n[STDERR RAW] size=  173312KiB time=02:28:06.81 bitrate= 159.8kbits/s speed= 185x\n[STDOUT RAW] bitrate= 159.9kbits/s\n[STDOUT RAW] total_size=179568640\n[STDOUT RAW] out_time_us=8983369958\n[STDOUT RAW] out_time_ms=8983369958\n[STDOUT RAW] out_time=02:29:43.369958\n[STDOUT RAW] dup_frames=0\n[STDOUT RAW] drop_frames=0\n[STDOUT RAW] speed= 185x\n[STDOUT RAW] progress=continue\n[STDERR RAW] size=  175360KiB time=02:29:43.36 bitrate= 159.9kbits/s speed= 185x\n[STDOUT RAW] bitrate= 159.9kbits/s\n[STDOUT RAW] total_size=181403648\n[STDOUT RAW] out_time_us=9076513958\n[STDOUT RAW] out_time_ms=9076513958\n[STDOUT RAW] out_time=02:31:16.513958\n[STDOUT RAW] dup_frames=0\n[STDOUT RAW] drop_frames=0\n[STDOUT RAW] speed= 185x\n[STDOUT RAW] progress=continue\n[STDERR RAW] size=  177152KiB time=02:31:16.51 bitrate= 159.9kbits/s speed= 185x\n[STDOUT RAW] bitrate= 159.8kbits/s\n[STDOUT RAW] total_size=183238656\n[STDOUT RAW] out_time_us=9175177958\n[STDOUT RAW] out_time_ms=9175177958\n[STDOUT RAW] out_time=02:32:55.177958\n[STDOUT RAW] dup_frames=0\n[STDOUT RAW] drop_frames=0\n[STDOUT RAW] speed= 185x\n[STDOUT RAW] progress=continue\n[STDERR RAW] size=  178944KiB time=02:32:55.17 bitrate= 159.8kbits/s speed= 185x\n[STDOUT RAW] bitrate= 159.8kbits/s\n[STDOUT RAW] total_size=185073664\n[STDOUT RAW] out_time_us=9266929958\n[STDOUT RAW] out_time_ms=9266929958\n[STDOUT RAW] out_time=02:34:26.929958\n[STDOUT RAW] dup_frames=0\n[STDOUT RAW] drop_frames=0\n[STDOUT RAW] speed= 185x\n[STDOUT RAW] progress=continue\n[STDOUT RAW] bitrate= 159.9kbits/s\n[STDERR RAW] size=  180736KiB time=02:34:26.92 bitrate= 159.8kbits/s speed= 185x\n[STDOUT RAW] total_size=187170816\n[STDOUT RAW] out_time_us=9361657958\n[STDOUT RAW] out_time_ms=9361657958\n[STDOUT RAW] out_time=02:36:01.657958\n[STDOUT RAW] dup_frames=0\n[STDOUT RAW] drop_frames=0\n[STDOUT RAW] speed= 185x\n[STDOUT RAW] progress=continue\n[STDERR RAW] size=  182784KiB time=02:36:01.65 bitrate= 159.9kbits/s speed= 185x\n[STDOUT RAW] bitrate= 159.8kbits/s\n[STDOUT RAW] total_size=189005824\n[STDOUT RAW] out_time_us=9463537958\n[STDOUT RAW] out_time_ms=9463537958\n[STDOUT RAW] out_time=02:37:43.537958\n[STDOUT RAW] dup_frames=0\n[STDOUT RAW] drop_frames=0\n[STDOUT RAW] speed= 185x\n[STDOUT RAW] progress=continue\n[STDERR RAW] size=  184576KiB time=02:37:43.53 bitrate= 159.8kbits/s speed= 185x\n[STDOUT RAW] bitrate= 159.9kbits/s\n[STDOUT RAW] total_size=191102976\n[STDOUT RAW] out_time_us=9564001958\n[STDOUT RAW] out_time_ms=9564001958\n[STDOUT RAW] out_time=02:39:24.001958\n[STDOUT RAW] dup_frames=0\n[STDOUT RAW] drop_frames=0\n[STDOUT RAW] speed= 186x\n[STDOUT RAW] progress=continue\n[STDERR RAW] size=  186624KiB time=02:39:24.00 bitrate= 159.9kbits/s speed= 186x\n[STDOUT RAW] bitrate= 160.0kbits/s\n[STDOUT RAW] total_size=193200128\n[STDOUT RAW] out_time_us=9661849958\n[STDOUT RAW] out_time_ms=9661849958\n[STDOUT RAW] out_time=02:41:01.849958\n[STDOUT RAW] dup_frames=0\n[STDOUT RAW] drop_frames=0\n[STDOUT RAW] speed= 186x\n[STDOUT RAW] progress=continue\n[STDERR RAW] size=  188672KiB time=02:41:01.84 bitrate= 160.0kbits/s speed= 186x\n[STDOUT RAW] bitrate= 159.8kbits/s\n[STDOUT RAW] total_size=195035136\n[STDOUT RAW] out_time_us=9764689958\n[STDOUT RAW] out_time_ms=9764689958\n[STDOUT RAW] out_time=02:42:44.689958\n[STDOUT RAW] dup_frames=0\n[STDOUT RAW] drop_frames=0\n[STDOUT RAW] speed= 186x\n[STDOUT RAW] progress=continue\n[STDERR RAW] size=  190464KiB time=02:42:44.68 bitrate= 159.8kbits/s speed= 186x\n[STDOUT RAW] bitrate= 159.9kbits/s\n[STDOUT RAW] total_size=197132288\n[STDOUT RAW] out_time_us=9861553958\n[STDOUT RAW] out_time_ms=9861553958\n[STDOUT RAW] out_time=02:44:21.553958\n[STDOUT RAW] dup_frames=0\n[STDOUT RAW] drop_frames=0\n[STDOUT RAW] speed= 186x\n[STDOUT RAW] progress=continue\n[STDERR RAW] size=  192512KiB time=02:44:21.55 bitrate= 159.9kbits/s speed= 186x\n[STDOUT RAW] bitrate= 159.8kbits/s\n[STDOUT RAW] total_size=198967296\n[STDOUT RAW] out_time_us=9961609958\n[STDOUT RAW] out_time_ms=9961609958\n[STDOUT RAW] out_time=02:46:01.609958\n[STDOUT RAW] dup_frames=0\n[STDOUT RAW] drop_frames=0\n[STDOUT RAW] speed= 186x\n[STDOUT RAW] progress=continue\n[STDERR RAW] size=  194304KiB time=02:46:01.60 bitrate= 159.8kbits/s speed= 186x\n[STDOUT RAW] bitrate= 159.8kbits/s\n[STDOUT RAW] total_size=200802304\n[STDOUT RAW] out_time_us=10053361958\n[STDOUT RAW] out_time_ms=10053361958\n[STDOUT RAW] out_time=02:47:33.361958\n[STDOUT RAW] dup_frames=0\n[STDOUT RAW] drop_frames=0\n[STDOUT RAW] speed= 186x\n[STDOUT RAW] progress=continue\n[STDERR RAW] size=  196096KiB time=02:47:33.36 bitrate= 159.8kbits/s speed= 186x\n[STDOUT RAW] bitrate= 160.0kbits/s\n[STDOUT RAW] total_size=202899456\n[STDOUT RAW] out_time_us=10147585958\n[STDOUT RAW] out_time_ms=10147585958\n[STDOUT RAW] out_time=02:49:07.585958\n[STDOUT RAW] dup_frames=0\n[STDOUT RAW] drop_frames=0\n[STDOUT RAW] speed= 186x\n[STDOUT RAW] progress=continue\n[STDERR RAW] size=  198144KiB time=02:49:07.58 bitrate= 160.0kbits/s speed= 186x\n[STDOUT RAW] bitrate= 160.0kbits/s\n[STDOUT RAW] total_size=204734464\n[STDOUT RAW] out_time_us=10237297958\n[STDOUT RAW] out_time_ms=10237297958\n[STDOUT RAW] out_time=02:50:37.297958\n[STDOUT RAW] dup_frames=0\n[STDOUT RAW] drop_frames=0\n[STDOUT RAW] speed= 186x\n[STDOUT RAW] progress=continue\n[STDERR RAW] size=  199936KiB time=02:50:37.29 bitrate= 160.0kbits/s speed= 186x\n[STDOUT RAW] bitrate= 159.8kbits/s\n[STDOUT RAW] total_size=206307328\n[STDOUT RAW] out_time_us=10325953958\n[STDOUT RAW] out_time_ms=10325953958\n[STDOUT RAW] out_time=02:52:05.953958\n[STDOUT RAW] dup_frames=0\n[STDOUT RAW] drop_frames=0\n[STDOUT RAW] speed= 185x\n[STDOUT RAW] progress=continue\n[STDERR RAW] size=  201472KiB time=02:52:05.95 bitrate= 159.8kbits/s speed= 185x\n[STDOUT RAW] bitrate= 159.8kbits/s\n[STDOUT RAW] total_size=208142336\n[STDOUT RAW] out_time_us=10416961958\n[STDOUT RAW] out_time_ms=10416961958\n[STDOUT RAW] out_time=02:53:36.961958\n[STDOUT RAW] dup_frames=0\n[STDOUT RAW] drop_frames=0\n[STDOUT RAW] speed= 185x\n[STDOUT RAW] progress=continue\n[STDERR RAW] size=  203264KiB time=02:53:36.96 bitrate= 159.8kbits/s speed= 185x\n[STDOUT RAW] bitrate= 159.9kbits/s\n[STDOUT RAW] total_size=209977344\n[STDOUT RAW] out_time_us=10503505958\n[STDOUT RAW] out_time_ms=10503505958\n[STDOUT RAW] out_time=02:55:03.505958\n[STDOUT RAW] dup_frames=0\n[STDOUT RAW] drop_frames=0\n[STDOUT RAW] speed= 185x\n[STDOUT RAW] progress=continue\n[STDERR RAW] size=  205056KiB time=02:55:03.50 bitrate= 159.9kbits/s speed= 185x\n[STDOUT RAW] bitrate= 159.8kbits/s\n[STDOUT RAW] total_size=211550208\n[STDOUT RAW] out_time_us=10590745958\n[STDOUT RAW] out_time_ms=10590745958\n[STDOUT RAW] out_time=02:56:30.745958\n[STDOUT RAW] dup_frames=0\n[STDOUT RAW] drop_frames=0\n[STDOUT RAW] speed= 185x\n[STDOUT RAW] progress=continue\n[STDOUT RAW] bitrate= 159.8kbits/s\n[STDERR RAW] size=  206592KiB time=02:56:30.74 bitrate= 159.8kbits/s speed= 185x\n[STDOUT RAW] total_size=213385216\n[STDOUT RAW] out_time_us=10682209958\n[STDOUT RAW] out_time_ms=10682209958\n[STDOUT RAW] out_time=02:58:02.209958\n[STDOUT RAW] dup_frames=0\n[STDOUT RAW] drop_frames=0\n[STDOUT RAW] speed= 185x\n[STDOUT RAW] progress=continue\n[STDERR RAW] size=  208384KiB time=02:58:02.20 bitrate= 159.8kbits/s speed= 185x\n[STDOUT RAW] bitrate= 159.9kbits/s\n[STDOUT RAW] total_size=215220224\n[STDOUT RAW] out_time_us=10770265958\n[STDOUT RAW] out_time_ms=10770265958\n[STDOUT RAW] out_time=02:59:30.265958\n[STDOUT RAW] dup_frames=0\n[STDOUT RAW] drop_frames=0\n[STDOUT RAW] speed= 185x\n[STDOUT RAW] progress=continue\n[STDERR RAW] size=  210176KiB time=02:59:30.26 bitrate= 159.9kbits/s speed= 185x\n[STDOUT RAW] bitrate= 159.9kbits/s\n[STDOUT RAW] total_size=217055232\n[STDOUT RAW] out_time_us=10860073958\n[STDOUT RAW] out_time_ms=10860073958\n[STDOUT RAW] out_time=03:01:00.073958\n[STDOUT RAW] dup_frames=0\n[STDOUT RAW] drop_frames=0\n[STDOUT RAW] speed= 185x\n[STDOUT RAW] progress=continue\n[STDERR RAW] size=  211968KiB time=03:01:00.07 bitrate= 159.9kbits/s speed= 185x\n[STDOUT RAW] bitrate= 159.9kbits/s\n[STDOUT RAW] total_size=218890240\n[STDOUT RAW] out_time_us=10953769958\n[STDOUT RAW] out_time_ms=10953769958\n[STDOUT RAW] out_time=03:02:33.769958\n[STDOUT RAW] dup_frames=0\n[STDOUT RAW] drop_frames=0\n[STDOUT RAW] speed= 185x\n[STDOUT RAW] progress=continue\n[STDERR RAW] size=  213760KiB time=03:02:33.76 bitrate= 159.9kbits/s speed= 185x\n[STDOUT RAW] bitrate= 159.9kbits/s\n[STDOUT RAW] total_size=220725248\n[STDOUT RAW] out_time_us=11040505958\n[STDOUT RAW] out_time_ms=11040505958\n[STDOUT RAW] out_time=03:04:00.505958\n[STDOUT RAW] dup_frames=0\n[STDOUT RAW] drop_frames=0\n[STDOUT RAW] speed= 185x\n[STDOUT RAW] progress=continue\n[STDERR RAW] size=  215552KiB time=03:04:00.50 bitrate= 159.9kbits/s speed= 185x\n[STDOUT RAW] bitrate= 159.8kbits/s\n[STDOUT RAW] total_size=222298112\n[STDOUT RAW] out_time_us=11128153958\n[STDOUT RAW] out_time_ms=11128153958\n[STDOUT RAW] out_time=03:05:28.153958\n[STDOUT RAW] dup_frames=0\n[STDOUT RAW] drop_frames=0\n[STDOUT RAW] speed= 185x\n[STDOUT RAW] progress=continue\n[STDERR RAW] size=  217088KiB time=03:05:28.15 bitrate= 159.8kbits/s speed= 185x\n[STDOUT RAW] bitrate= 160.0kbits/s\n[STDOUT RAW] total_size=224133120\n[STDOUT RAW] out_time_us=11207809958\n[STDOUT RAW] out_time_ms=11207809958\n[STDOUT RAW] out_time=03:06:47.809958\n[STDOUT RAW] dup_frames=0\n[STDOUT RAW] drop_frames=0\n[STDOUT RAW] speed= 184x\n[STDOUT RAW] progress=continue\n[STDERR RAW] size=  218880KiB time=03:06:47.80 bitrate= 160.0kbits/s speed= 184x\n[STDOUT RAW] bitrate= 159.8kbits/s\n[STDOUT RAW] total_size=225705984\n[STDOUT RAW] out_time_us=11298529958\n[STDOUT RAW] out_time_ms=11298529958\n[STDOUT RAW] out_time=03:08:18.529958\n[STDOUT RAW] dup_frames=0\n[STDOUT RAW] drop_frames=0\n[STDOUT RAW] speed= 184x\n[STDOUT RAW] progress=continue\n[STDERR RAW] size=  220416KiB time=03:08:18.52 bitrate= 159.8kbits/s speed= 184x\n[STDOUT RAW] bitrate= 160.0kbits/s\n[STDOUT RAW] total_size=227803136\n[STDOUT RAW] out_time_us=11390545958\n[STDOUT RAW] out_time_ms=11390545958\n[STDOUT RAW] out_time=03:09:50.545958\n[STDOUT RAW] dup_frames=0\n[STDOUT RAW] drop_frames=0\n[STDOUT RAW] speed= 184x\n[STDOUT RAW] progress=continue\n[STDERR RAW] size=  222464KiB time=03:09:50.54 bitrate= 160.0kbits/s speed= 184x\n[STDOUT RAW] bitrate= 159.9kbits/s\n[STDOUT RAW] total_size=229638144\n[STDOUT RAW] out_time_us=11487265958\n[STDOUT RAW] out_time_ms=11487265958\n[STDOUT RAW] out_time=03:11:27.265958\n[STDOUT RAW] dup_frames=0\n[STDOUT RAW] drop_frames=0\n[STDOUT RAW] speed= 184x\n[STDOUT RAW] progress=continue\n[STDERR RAW] size=  224256KiB time=03:11:27.26 bitrate= 159.9kbits/s speed= 184x\n[STDOUT RAW] bitrate= 160.0kbits/s\n[STDOUT RAW] total_size=231735296\n[STDOUT RAW] out_time_us=11587993958\n[STDOUT RAW] out_time_ms=11587993958\n[STDOUT RAW] out_time=03:13:07.993958\n[STDOUT RAW] dup_frames=0\n[STDOUT RAW] drop_frames=0\n[STDOUT RAW] speed= 184x\n[STDOUT RAW] progress=continue\n[STDERR RAW] size=  226304KiB time=03:13:07.99 bitrate= 160.0kbits/s speed= 184x\n[STDOUT RAW] bitrate= 159.8kbits/s\n[STDOUT RAW] total_size=233570304\n[STDOUT RAW] out_time_us=11691745958\n[STDOUT RAW] out_time_ms=11691745958\n[STDOUT RAW] out_time=03:14:51.745958\n[STDOUT RAW] dup_frames=0\n[STDOUT RAW] drop_frames=0\n[STDOUT RAW] speed= 184x\n[STDOUT RAW] progress=continue\n[STDERR RAW] size=  228096KiB time=03:14:51.74 bitrate= 159.8kbits/s speed= 184x\n[STDOUT RAW] bitrate= 159.8kbits/s\n[STDOUT RAW] total_size=235405312\n[STDOUT RAW] out_time_us=11783449958\n[STDOUT RAW] out_time_ms=11783449958\n[STDOUT RAW] out_time=03:16:23.449958\n[STDOUT RAW] dup_frames=0\n[STDOUT RAW] drop_frames=0\n[STDOUT RAW] speed= 184x\n[STDOUT RAW] progress=continue\n[STDERR RAW] size=  229888KiB time=03:16:23.44 bitrate= 159.8kbits/s speed= 184x\n[STDOUT RAW] bitrate= 160.0kbits/s\n[STDOUT RAW] total_size=237502464\n[STDOUT RAW] out_time_us=11876401958\n[STDOUT RAW] out_time_ms=11876401958\n[STDOUT RAW] out_time=03:17:56.401958\n[STDOUT RAW] dup_frames=0\n[STDOUT RAW] drop_frames=0\n[STDOUT RAW] speed= 184x\n[STDOUT RAW] progress=continue\n[STDERR RAW] size=  231936KiB time=03:17:56.40 bitrate= 160.0kbits/s speed= 184x\n[STDOUT RAW] bitrate= 159.9kbits/s\n[STDOUT RAW] total_size=239337472\n[STDOUT RAW] out_time_us=11970913958\n[STDOUT RAW] out_time_ms=11970913958\n[STDOUT RAW] out_time=03:19:30.913958\n[STDOUT RAW] dup_frames=0\n[STDOUT RAW] drop_frames=0\n[STDOUT RAW] speed= 184x\n[STDOUT RAW] progress=continue\n[STDERR RAW] size=  233728KiB time=03:19:30.91 bitrate= 159.9kbits/s speed= 184x\n[STDOUT RAW] bitrate= 159.9kbits/s\n[STDOUT RAW] total_size=241172480\n[STDOUT RAW] out_time_us=12063697958\n[STDOUT RAW] out_time_ms=12063697958\n[STDOUT RAW] out_time=03:21:03.697958\n[STDOUT RAW] dup_frames=0\n[STDOUT RAW] drop_frames=0\n[STDOUT RAW] speed= 184x\n[STDOUT RAW] progress=continue\n[STDERR RAW] size=  235520KiB time=03:21:03.69 bitrate= 159.9kbits/s speed= 184x\n[STDOUT RAW] bitrate= 159.9kbits/s\n[STDOUT RAW] total_size=243007488\n[STDOUT RAW] out_time_us=12158521958\n[STDOUT RAW] out_time_ms=12158521958\n[STDOUT RAW] out_time=03:22:38.521958\n[STDOUT RAW] dup_frames=0\n[STDOUT RAW] drop_frames=0\n[STDOUT RAW] speed= 184x\n[STDOUT RAW] progress=continue\n[STDERR RAW] size=  237312KiB time=03:22:38.52 bitrate= 159.9kbits/s speed= 184x\n[STDOUT RAW] bitrate= 159.8kbits/s\n[STDOUT RAW] total_size=244842496\n[STDOUT RAW] out_time_us=12255361958\n[STDOUT RAW] out_time_ms=12255361958\n[STDOUT RAW] out_time=03:24:15.361958\n[STDOUT RAW] dup_frames=0\n[STDOUT RAW] drop_frames=0\n[STDOUT RAW] speed= 184x\n[STDOUT RAW] progress=continue\n[STDERR RAW] size=  239104KiB time=03:24:15.36 bitrate= 159.8kbits/s speed= 184x\n[STDOUT RAW] bitrate= 159.8kbits/s\n[STDOUT RAW] total_size=246939648\n[STDOUT RAW] out_time_us=12359353958\n[STDOUT RAW] out_time_ms=12359353958\n[STDOUT RAW] out_time=03:25:59.353958\n[STDOUT RAW] dup_frames=0\n[STDOUT RAW] drop_frames=0\n[STDOUT RAW] speed= 184x\n[STDOUT RAW] progress=continue\n[STDERR RAW] size=  241152KiB time=03:25:59.35 bitrate= 159.8kbits/s speed= 184x\n[STDOUT RAW] bitrate= 159.8kbits/s\n[STDOUT RAW] total_size=248774656\n[STDOUT RAW] out_time_us=12451969958\n[STDOUT RAW] out_time_ms=12451969958\n[STDOUT RAW] out_time=03:27:31.969958\n[STDOUT RAW] dup_frames=0\n[STDOUT RAW] drop_frames=0\n[STDOUT RAW] speed= 184x\n[STDOUT RAW] progress=continue\n[STDERR RAW] size=  242944KiB time=03:27:31.96 bitrate= 159.8kbits/s speed= 184x\n[STDOUT RAW] bitrate= 160.0kbits/s\n[STDOUT RAW] total_size=250871808\n[STDOUT RAW] out_time_us=12545521958\n[STDOUT RAW] out_time_ms=12545521958\n[STDOUT RAW] out_time=03:29:05.521958\n[STDOUT RAW] dup_frames=0\n[STDOUT RAW] drop_frames=0\n[STDOUT RAW] speed= 184x\n[STDOUT RAW] progress=continue\n[STDOUT RAW] bitrate= 159.9kbits/s\n[STDERR RAW] size=  244992KiB time=03:29:05.52 bitrate= 160.0kbits/s speed= 184x\n[STDOUT RAW] total_size=252706816\n[STDOUT RAW] out_time_us=12640321958\n[STDOUT RAW] out_time_ms=12640321958\n[STDOUT RAW] out_time=03:30:40.321958\n[STDOUT RAW] dup_frames=0\n[STDOUT RAW] drop_frames=0\n[STDOUT RAW] speed= 184x\n[STDOUT RAW] progress=continue\n[STDERR RAW] size=  246784KiB time=03:30:40.32 bitrate= 159.9kbits/s speed= 184x\n[STDOUT RAW] bitrate= 159.9kbits/s\n[STDOUT RAW] total_size=254541824\n[STDOUT RAW] out_time_us=12738169958\n[STDOUT RAW] out_time_ms=12738169958\n[STDOUT RAW] out_time=03:32:18.169958\n[STDOUT RAW] dup_frames=0\n[STDOUT RAW] drop_frames=0\n[STDOUT RAW] speed= 184x\n[STDOUT RAW] progress=continue\n[STDERR RAW] size=  248576KiB time=03:32:18.16 bitrate= 159.9kbits/s speed= 184x\n[STDOUT RAW] bitrate= 159.9kbits/s\n[STDOUT RAW] total_size=256638976\n[STDOUT RAW] out_time_us=12838657958\n[STDOUT RAW] out_time_ms=12838657958\n[STDOUT RAW] out_time=03:33:58.657958\n[STDOUT RAW] dup_frames=0\n[STDOUT RAW] drop_frames=0\n[STDOUT RAW] speed= 184x\n[STDOUT RAW] progress=continue\n[STDERR RAW] size=  250624KiB time=03:33:58.65 bitrate= 159.9kbits/s speed= 184x\n[STDOUT RAW] bitrate= 159.9kbits/s\n[STDOUT RAW] total_size=258473984\n[STDOUT RAW] out_time_us=12934273958\n[STDOUT RAW] out_time_ms=12934273958\n[STDOUT RAW] out_time=03:35:34.273958\n[STDOUT RAW] dup_frames=0\n[STDOUT RAW] drop_frames=0\n[STDOUT RAW] speed= 184x\n[STDOUT RAW] progress=continue\n[STDERR RAW] size=  252416KiB time=03:35:34.27 bitrate= 159.9kbits/s speed= 184x\n[STDOUT RAW] bitrate= 159.8kbits/s\n[STDOUT RAW] total_size=260308992\n[STDOUT RAW] out_time_us=13028521958\n[STDOUT RAW] out_time_ms=13028521958\n[STDOUT RAW] out_time=03:37:08.521958\n[STDOUT RAW] dup_frames=0\n[STDOUT RAW] drop_frames=0\n[STDOUT RAW] speed= 184x\n[STDOUT RAW] progress=continue\n[STDERR RAW] size=  254208KiB time=03:37:08.52 bitrate= 159.8kbits/s speed= 184x\n[STDOUT RAW] bitrate= 159.8kbits/s\n[STDOUT RAW] total_size=262144000\n[STDOUT RAW] out_time_us=13120441958\n[STDOUT RAW] out_time_ms=13120441958\n[STDOUT RAW] out_time=03:38:40.441958\n[STDOUT RAW] dup_frames=0\n[STDOUT RAW] drop_frames=0\n[STDOUT RAW] speed= 184x\n[STDOUT RAW] progress=continue\n[STDERR RAW] size=  256000KiB time=03:38:40.44 bitrate= 159.8kbits/s speed= 184x\n[STDOUT RAW] bitrate= 159.9kbits/s\n[STDOUT RAW] total_size=264241152\n[STDOUT RAW] out_time_us=13219561958\n[STDOUT RAW] out_time_ms=13219561958\n[STDOUT RAW] out_time=03:40:19.561958\n[STDOUT RAW] dup_frames=0\n[STDOUT RAW] drop_frames=0\n[STDOUT RAW] speed= 184x\n[STDOUT RAW] progress=continue\n[STDERR RAW] size=  258048KiB time=03:40:19.56 bitrate= 159.9kbits/s speed= 184x\n[STDOUT RAW] bitrate= 159.9kbits/s\n[STDOUT RAW] total_size=266076160\n[STDOUT RAW] out_time_us=13311433958\n[STDOUT RAW] out_time_ms=13311433958\n[STDOUT RAW] out_time=03:41:51.433958\n[STDOUT RAW] dup_frames=0\n[STDOUT RAW] drop_frames=0\n[STDOUT RAW] speed= 184x\n[STDOUT RAW] progress=continue\n[STDERR RAW] size=  259840KiB time=03:41:51.43 bitrate= 159.9kbits/s speed= 184x\n[STDOUT RAW] bitrate= 159.8kbits/s\n[STDOUT RAW] total_size=267124736\n[STDOUT RAW] out_time_us=13369249958\n[STDOUT RAW] out_time_ms=13369249958\n[STDOUT RAW] out_time=03:42:49.249958\n[STDOUT RAW] dup_frames=0\n[STDOUT RAW] drop_frames=0\n[STDOUT RAW] speed= 184x\n[STDOUT RAW] progress=continue\n[STDERR RAW] size=  260864KiB time=03:42:49.24 bitrate= 159.8kbits/s speed= 184x\n[STDOUT RAW] bitrate= 159.9kbits/s\n[STDOUT RAW] total_size=268959744\n[STDOUT RAW] out_time_us=13452409958\n[STDOUT RAW] out_time_ms=13452409958\n[STDOUT RAW] out_time=03:44:12.409958\n[STDOUT RAW] dup_frames=0\n[STDOUT RAW] drop_frames=0\n[STDOUT RAW] speed= 184x\n[STDOUT RAW] progress=continue\n[STDERR RAW] size=  262656KiB time=03:44:12.40 bitrate= 159.9kbits/s speed= 184x\n[STDOUT RAW] bitrate= 159.8kbits/s\n[STDOUT RAW] total_size=270794752\n[STDOUT RAW] out_time_us=13552969958\n[STDOUT RAW] out_time_ms=13552969958\n[STDOUT RAW] out_time=03:45:52.969958\n[STDOUT RAW] dup_frames=0\n[STDOUT RAW] drop_frames=0\n[STDOUT RAW] speed= 184x\n[STDOUT RAW] progress=continue\n[STDERR RAW] size=  264448KiB time=03:45:52.96 bitrate= 159.8kbits/s speed= 184x\n[STDOUT RAW] bitrate= 159.8kbits/s\n[STDOUT RAW] total_size=272629760\n[STDOUT RAW] out_time_us=13644721958\n[STDOUT RAW] out_time_ms=13644721958\n[STDOUT RAW] out_time=03:47:24.721958\n[STDOUT RAW] dup_frames=0\n[STDOUT RAW] drop_frames=0\n[STDOUT RAW] speed= 184x\n[STDOUT RAW] progress=continue\n[STDERR RAW] size=  266240KiB time=03:47:24.72 bitrate= 159.8kbits/s speed= 184x\n[STDOUT RAW] bitrate= 160.0kbits/s\n[STDOUT RAW] total_size=274726912\n[STDOUT RAW] out_time_us=13737529958\n[STDOUT RAW] out_time_ms=13737529958\n[STDOUT RAW] out_time=03:48:57.529958\n[STDOUT RAW] dup_frames=0\n[STDOUT RAW] drop_frames=0\n[STDOUT RAW] speed= 184x\n[STDOUT RAW] progress=continue\n[STDERR RAW] size=  268288KiB time=03:48:57.52 bitrate= 160.0kbits/s speed= 184x\n[STDOUT RAW] bitrate= 160.0kbits/s\n[STDOUT RAW] total_size=276561920\n[STDOUT RAW] out_time_us=13829929958\n[STDOUT RAW] out_time_ms=13829929958\n[STDOUT RAW] out_time=03:50:29.929958\n[STDOUT RAW] dup_frames=0\n[STDOUT RAW] drop_frames=0\n[STDOUT RAW] speed= 184x\n[STDOUT RAW] progress=continue\n[STDERR RAW] size=  270080KiB time=03:50:29.92 bitrate= 160.0kbits/s speed= 184x\n[STDOUT RAW] bitrate= 159.8kbits/s\n[STDOUT RAW] total_size=278396928\n[STDOUT RAW] out_time_us=13933081958\n[STDOUT RAW] out_time_ms=13933081958\n[STDOUT RAW] out_time=03:52:13.081958\n[STDOUT RAW] dup_frames=0\n[STDOUT RAW] drop_frames=0\n[STDOUT RAW] speed= 184x\n[STDOUT RAW] progress=continue\n[STDERR RAW] size=  271872KiB time=03:52:13.08 bitrate= 159.8kbits/s speed= 184x\n[STDOUT RAW] bitrate= 160.0kbits/s\n[STDOUT RAW] total_size=280494080\n[STDOUT RAW] out_time_us=14025673958\n[STDOUT RAW] out_time_ms=14025673958\n[STDOUT RAW] out_time=03:53:45.673958\n[STDOUT RAW] dup_frames=0\n[STDOUT RAW] drop_frames=0\n[STDOUT RAW] speed= 184x\n[STDOUT RAW] progress=continue\n[STDERR RAW] size=  273920KiB time=03:53:45.67 bitrate= 160.0kbits/s speed= 184x\n[STDOUT RAW] bitrate= 160.0kbits/s\n[STDOUT RAW] total_size=282329088\n[STDOUT RAW] out_time_us=14118001958\n[STDOUT RAW] out_time_ms=14118001958\n[STDOUT RAW] out_time=03:55:18.001958\n[STDOUT RAW] dup_frames=0\n[STDOUT RAW] drop_frames=0\n[STDOUT RAW] speed= 184x\n[STDOUT RAW] progress=continue\n[STDERR RAW] size=  275712KiB time=03:55:18.00 bitrate= 160.0kbits/s speed= 184x\n[STDOUT RAW] bitrate= 159.9kbits/s\n[STDOUT RAW] total_size=284164096\n[STDOUT RAW] out_time_us=14221441958\n[STDOUT RAW] out_time_ms=14221441958\n[STDOUT RAW] out_time=03:57:01.441958\n[STDOUT RAW] dup_frames=0\n[STDOUT RAW] drop_frames=0\n[STDOUT RAW] speed= 184x\n[STDOUT RAW] progress=continue\n[STDOUT RAW] bitrate= 159.9kbits/s\n[STDERR RAW] size=  277504KiB time=03:57:01.44 bitrate= 159.9kbits/s speed= 184x\n[STDOUT RAW] total_size=285999104\n[STDOUT RAW] out_time_us=14313193958\n[STDOUT RAW] out_time_ms=14313193958\n[STDOUT RAW] out_time=03:58:33.193958\n[STDOUT RAW] dup_frames=0\n[STDOUT RAW] drop_frames=0\n[STDOUT RAW] speed= 184x\n[STDOUT RAW] progress=continue\n[STDERR RAW] size=  279296KiB time=03:58:33.19 bitrate= 159.9kbits/s speed= 184x\n[STDOUT RAW] bitrate= 159.9kbits/s\n[STDOUT RAW] total_size=288096256\n[STDOUT RAW] out_time_us=14418049958\n[STDOUT RAW] out_time_ms=14418049958\n[STDOUT RAW] out_time=04:00:18.049958\n[STDOUT RAW] dup_frames=0\n[STDOUT RAW] drop_frames=0\n[STDOUT RAW] speed= 184x\n[STDOUT RAW] progress=continue\n[STDERR RAW] size=  281344KiB time=04:00:18.04 bitrate= 159.9kbits/s speed= 184x\n[STDOUT RAW] bitrate= 159.9kbits/s\n[STDOUT RAW] total_size=289931264\n[STDOUT RAW] out_time_us=14509801958\n[STDOUT RAW] out_time_ms=14509801958\n[STDOUT RAW] out_time=04:01:49.801958\n[STDOUT RAW] dup_frames=0\n[STDOUT RAW] drop_frames=0\n[STDOUT RAW] speed= 184x\n[STDOUT RAW] progress=continue\n[STDOUT RAW] bitrate= 159.9kbits/s\n[STDERR RAW] size=  283136KiB time=04:01:49.80 bitrate= 159.9kbits/s speed= 184x\n[STDOUT RAW] total_size=291766272\n[STDOUT RAW] out_time_us=14601553958\n[STDOUT RAW] out_time_ms=14601553958\n[STDOUT RAW] out_time=04:03:21.553958\n[STDOUT RAW] dup_frames=0\n[STDOUT RAW] drop_frames=0\n[STDOUT RAW] speed= 184x\n[STDOUT RAW] progress=continue\n[STDERR RAW] size=  284928KiB time=04:03:21.55 bitrate= 159.9kbits/s speed= 184x\n[STDOUT RAW] bitrate= 159.9kbits/s\n[STDOUT RAW] total_size=293863424\n[STDOUT RAW] out_time_us=14701633958\n[STDOUT RAW] out_time_ms=14701633958\n[STDOUT RAW] out_time=04:05:01.633958\n[STDOUT RAW] dup_frames=0\n[STDOUT RAW] drop_frames=0\n[STDOUT RAW] speed= 184x\n[STDOUT RAW] progress=continue\n[STDERR RAW] size=  286976KiB time=04:05:01.63 bitrate= 159.9kbits/s speed= 184x\n[STDOUT RAW] bitrate= 159.9kbits/s\n[STDOUT RAW] total_size=295698432\n[STDOUT RAW] out_time_us=14798161958\n[STDOUT RAW] out_time_ms=14798161958\n[STDOUT RAW] out_time=04:06:38.161958\n[STDOUT RAW] dup_frames=0\n[STDOUT RAW] drop_frames=0\n[STDOUT RAW] speed= 184x\n[STDOUT RAW] progress=continue\n[STDERR RAW] size=  288768KiB time=04:06:38.16 bitrate= 159.9kbits/s speed= 184x\n[STDOUT RAW] bitrate= 160.0kbits/s\n[STDOUT RAW] total_size=297795584\n[STDOUT RAW] out_time_us=14892265958\n[STDOUT RAW] out_time_ms=14892265958\n[STDOUT RAW] out_time=04:08:12.265958\n[STDOUT RAW] dup_frames=0\n[STDOUT RAW] drop_frames=0\n[STDOUT RAW] speed= 184x\n[STDOUT RAW] progress=continue\n[STDERR RAW] size=  290816KiB time=04:08:12.26 bitrate= 160.0kbits/s speed= 184x\n[STDOUT RAW] bitrate= 159.9kbits/s\n[STDOUT RAW] total_size=299630592\n[STDOUT RAW] out_time_us=14989177958\n[STDOUT RAW] out_time_ms=14989177958\n[STDOUT RAW] out_time=04:09:49.177958\n[STDOUT RAW] dup_frames=0\n[STDOUT RAW] drop_frames=0\n[STDOUT RAW] speed= 184x\n[STDOUT RAW] progress=continue\n[STDERR RAW] size=  292608KiB time=04:09:49.17 bitrate= 159.9kbits/s speed= 184x\n[STDOUT RAW] bitrate= 159.9kbits/s\n[STDOUT RAW] total_size=301727744\n[STDOUT RAW] out_time_us=15091417958\n[STDOUT RAW] out_time_ms=15091417958\n[STDOUT RAW] out_time=04:11:31.417958\n[STDOUT RAW] dup_frames=0\n[STDOUT RAW] drop_frames=0\n[STDOUT RAW] speed= 184x\n[STDOUT RAW] progress=continue\n[STDERR RAW] size=  294656KiB time=04:11:31.41 bitrate= 159.9kbits/s speed= 184x\n[STDOUT RAW] bitrate= 159.9kbits/s\n[STDOUT RAW] total_size=303300608\n[STDOUT RAW] out_time_us=15176833958\n[STDOUT RAW] out_time_ms=15176833958\n[STDOUT RAW] out_time=04:12:56.833958\n[STDOUT RAW] dup_frames=0\n[STDOUT RAW] drop_frames=0\n[STDOUT RAW] speed= 184x\n[STDOUT RAW] progress=continue\n[STDERR RAW] size=  296192KiB time=04:12:56.83 bitrate= 159.9kbits/s speed= 184x\n[STDOUT RAW] bitrate= 159.9kbits/s\n[STDOUT RAW] total_size=305397760\n[STDOUT RAW] out_time_us=15274969958\n[STDOUT RAW] out_time_ms=15274969958\n[STDOUT RAW] out_time=04:14:34.969958\n[STDOUT RAW] dup_frames=0\n[STDOUT RAW] drop_frames=0\n[STDOUT RAW] speed= 184x\n[STDOUT RAW] progress=continue\n[STDERR RAW] size=  298240KiB time=04:14:34.96 bitrate= 159.9kbits/s speed= 184x\n[STDOUT RAW] bitrate= 160.0kbits/s\n[STDOUT RAW] total_size=307232768\n[STDOUT RAW] out_time_us=15364657958\n[STDOUT RAW] out_time_ms=15364657958\n[STDOUT RAW] out_time=04:16:04.657958\n[STDOUT RAW] dup_frames=0\n[STDOUT RAW] drop_frames=0\n[STDOUT RAW] speed= 184x\n[STDOUT RAW] progress=continue\n[STDERR RAW] size=  300032KiB time=04:16:04.65 bitrate= 160.0kbits/s speed= 184x\n[STDOUT RAW] bitrate= 159.9kbits/s\n[STDOUT RAW] total_size=309067776\n[STDOUT RAW] out_time_us=15460057958\n[STDOUT RAW] out_time_ms=15460057958\n[STDOUT RAW] out_time=04:17:40.057958\n[STDOUT RAW] dup_frames=0\n[STDOUT RAW] drop_frames=0\n[STDOUT RAW] speed= 184x\n[STDOUT RAW] progress=continue\n[STDERR RAW] size=  301824KiB time=04:17:40.05 bitrate= 159.9kbits/s speed= 184x\n[STDOUT RAW] bitrate= 160.0kbits/s\n[STDOUT RAW] total_size=311164928\n[STDOUT RAW] out_time_us=15558721958\n[STDOUT RAW] out_time_ms=15558721958\n[STDOUT RAW] out_time=04:19:18.721958\n[STDOUT RAW] dup_frames=0\n[STDOUT RAW] drop_frames=0\n[STDOUT RAW] speed= 184x\n[STDOUT RAW] progress=continue\n[STDERR RAW] size=  303872KiB time=04:19:18.72 bitrate= 160.0kbits/s speed= 184x\n[STDOUT RAW] bitrate= 159.9kbits/s\n[STDOUT RAW] total_size=312737792\n[STDOUT RAW] out_time_us=15650137958\n[STDOUT RAW] out_time_ms=15650137958\n[STDOUT RAW] out_time=04:20:50.137958\n[STDOUT RAW] dup_frames=0\n[STDOUT RAW] drop_frames=0\n[STDOUT RAW] speed= 184x\n[STDOUT RAW] progress=continue\n[STDERR RAW] size=  305408KiB time=04:20:50.13 bitrate= 159.9kbits/s speed= 184x\n[STDOUT RAW] bitrate= 159.9kbits/s\n[STDOUT RAW] total_size=314310656\n[STDOUT RAW] out_time_us=15728761958\n[STDOUT RAW] out_time_ms=15728761958\n[STDOUT RAW] out_time=04:22:08.761958\n[STDOUT RAW] dup_frames=0\n[STDOUT RAW] drop_frames=0\n[STDOUT RAW] speed= 184x\n[STDOUT RAW] progress=continue\n[STDERR RAW] size=  306944KiB time=04:22:08.76 bitrate= 159.9kbits/s speed= 184x\n[STDOUT RAW] bitrate= 160.0kbits/s\n[STDOUT RAW] total_size=316407808\n[STDOUT RAW] out_time_us=15821257958\n[STDOUT RAW] out_time_ms=15821257958\n[STDOUT RAW] out_time=04:23:41.257958\n[STDOUT RAW] dup_frames=0\n[STDOUT RAW] drop_frames=0\n[STDOUT RAW] speed= 184x\n[STDOUT RAW] progress=continue\n[STDERR RAW] size=  308992KiB time=04:23:41.25 bitrate= 160.0kbits/s speed= 184x\n[STDOUT RAW] bitrate= 160.0kbits/s\n[STDOUT RAW] total_size=318242816\n[STDOUT RAW] out_time_us=15914041958\n[STDOUT RAW] out_time_ms=15914041958\n[STDOUT RAW] out_time=04:25:14.041958\n[STDOUT RAW] dup_frames=0\n[STDOUT RAW] drop_frames=0\n[STDOUT RAW] speed= 184x\n[STDOUT RAW] progress=continue\n[STDERR RAW] size=  310784KiB time=04:25:14.04 bitrate= 160.0kbits/s speed= 184x\n[STDOUT RAW] bitrate= 159.9kbits/s\n[STDOUT RAW] total_size=320077824\n[STDOUT RAW] out_time_us=16017121958\n[STDOUT RAW] out_time_ms=16017121958\n[STDOUT RAW] out_time=04:26:57.121958\n[STDOUT RAW] dup_frames=0\n[STDOUT RAW] drop_frames=0\n[STDOUT RAW] speed= 184x\n[STDOUT RAW] progress=continue\n[STDERR RAW] size=  312576KiB time=04:26:57.12 bitrate= 159.9kbits/s speed= 184x\n[STDOUT RAW] bitrate= 159.9kbits/s\n[STDOUT RAW] total_size=321912832\n[STDOUT RAW] out_time_us=16108873958\n[STDOUT RAW] out_time_ms=16108873958\n[STDOUT RAW] out_time=04:28:28.873958\n[STDOUT RAW] dup_frames=0\n[STDOUT RAW] drop_frames=0\n[STDOUT RAW] speed= 184x\n[STDOUT RAW] progress=continue\n[STDERR RAW] size=  314368KiB time=04:28:28.87 bitrate= 159.9kbits/s speed= 184x\n[STDOUT RAW] bitrate= 159.9kbits/s\n[STDOUT RAW] total_size=324009984\n[STDOUT RAW] out_time_us=16213729958\n[STDOUT RAW] out_time_ms=16213729958\n[STDOUT RAW] out_time=04:30:13.729958\n[STDOUT RAW] dup_frames=0\n[STDOUT RAW] drop_frames=0\n[STDOUT RAW] speed= 184x\n[STDOUT RAW] progress=continue\n[STDERR RAW] size=  316416KiB time=04:30:13.72 bitrate= 159.9kbits/s speed= 184x\n[STDOUT RAW] bitrate= 159.9kbits/s\n[STDOUT RAW] total_size=326107136\n[STDOUT RAW] out_time_us=16311145958\n[STDOUT RAW] out_time_ms=16311145958\n[STDOUT RAW] out_time=04:31:51.145958\n[STDOUT RAW] dup_frames=0\n[STDOUT RAW] drop_frames=0\n[STDOUT RAW] speed= 184x\n[STDOUT RAW] progress=continue\n[STDERR RAW] size=  318464KiB time=04:31:51.14 bitrate= 159.9kbits/s speed= 184x\n[STDOUT RAW] bitrate= 160.0kbits/s\n[STDOUT RAW] total_size=327942144\n[STDOUT RAW] out_time_us=16400185958\n[STDOUT RAW] out_time_ms=16400185958\n[STDOUT RAW] out_time=04:33:20.185958\n[STDOUT RAW] dup_frames=0\n[STDOUT RAW] drop_frames=0\n[STDOUT RAW] speed= 184x\n[STDOUT RAW] progress=continue\n[STDERR RAW] size=  320256KiB time=04:33:20.18 bitrate= 160.0kbits/s speed= 184x\n[STDOUT RAW] bitrate= 160.0kbits/s\n[STDOUT RAW] total_size=329777152\n[STDOUT RAW] out_time_us=16490425958\n[STDOUT RAW] out_time_ms=16490425958\n[STDOUT RAW] out_time=04:34:50.425958\n[STDOUT RAW] dup_frames=0\n[STDOUT RAW] drop_frames=0\n[STDOUT RAW] speed= 184x\n[STDOUT RAW] progress=continue\n[STDERR RAW] size=  322048KiB time=04:34:50.42 bitrate= 160.0kbits/s speed= 184x\n[STDOUT RAW] bitrate= 160.0kbits/s\n[STDERR RAW] size=  322369KiB time=04:35:05.21 bitrate= 160.0kbits/s speed= 184x\n[STDOUT RAW] total_size=330106124\n[STDOUT RAW] out_time_us=16505214000\n[STDOUT RAW] out_time_ms=16505214000\n[STDOUT RAW] out_time=04:35:05.214000\n[STDOUT RAW] dup_frames=0\n[STDOUT RAW] drop_frames=0\n[STDOUT RAW] speed= 184x\n[STDOUT RAW] progress=end\n[ConversionWorker] STDERR pipe closed signal received.\n[ConversionWorker] Detected 'progress=end' for 引入03.wav\n[ConversionWorker] STDOUT pipe closed signal received.\n[ConversionWorker] Process finished and both stream pipes closed. Exiting loop.\n[ConversionWorker] Waiting for reader threads to join...\n[ConversionWorker] FFmpeg process ended. Return code: 0\n[ConversionWorker] Closing FFmpeg log file.\n